<?xml version="1.0" encoding="UTF-8"?>
<svg id="Layer_1" data-name="Layer 1" xmlns="http://www.w3.org/2000/svg" viewBox="0 0 612 130">
  <defs>
    <style>
      .cls-1 {
        fill: #eee3d7;
      }
    </style>
  </defs>
  <g>
    <path class="cls-1" d="M163.9,100.38c2.15-.23,3.62-.72,4.4-1.49s1.17-2.21,1.17-4.33v-50.34c0-2.11-.37-3.53-1.1-4.27-.73-.74-2.15-1.26-4.23-1.56v-2.4h19.13v6.6c1.37-2.28,2.71-3.96,4.01-5.04,2.35-1.89,5.35-2.84,9-2.84,5.25,0,9.61,1.97,13.09,5.92,3.47,3.95,5.21,9.83,5.21,17.66,0,7.27-1.87,13.3-5.6,18.08-3.73,4.78-8.28,7.17-13.62,7.17-2.74,0-5.33-.8-7.78-2.4-1.3-.85-2.66-2.05-4.06-3.62v8.46c.03,4.5.06,7.03.1,7.58.23,2.64.91,4.45,2.03,5.43,1.12.98,3.01,1.55,5.65,1.71v2.05h-27.4v-2.4ZM198.73,70.78c.68-2.64,1.03-6.44,1.03-11.4,0-5.74-.52-10.31-1.57-13.72-1.05-3.41-3.16-5.11-6.36-5.11-2.15,0-4.08.95-5.77,2.84-1.7,1.89-2.54,3.26-2.54,4.11v24.36c0,.98.81,2.24,2.42,3.79,1.61,1.55,3.43,2.32,5.45,2.32,3.62,0,6.07-2.4,7.34-7.19Z"/>
    <path class="cls-1" d="M226.16,41.21c4.1-4.26,9.04-6.39,14.82-6.39,3.3,0,6.4.86,9.31,2.59,2.91,1.73,5.14,4.13,6.71,7.19,1.18,2.32,1.99,5.32,2.45,9,.23,1.73.34,3.05.34,3.96h-25.59c.23,4.01.88,7.49,1.96,10.42,1.96,5.51,5.41,8.27,10.34,8.27,2.35,0,4.58-.73,6.67-2.2,1.27-.88,2.86-2.36,4.76-4.45l2.3,1.42c-3.1,5.09-6.69,8.63-10.78,10.62-2.64,1.27-5.68,1.91-9.11,1.91-4.93,0-9.55-1.94-13.86-5.82s-6.47-10.08-6.47-18.59c0-7.7,2.05-13.67,6.15-17.93ZM247.46,53.86c-.07-5.9-.52-10.03-1.38-12.38-.85-2.35-2.55-3.52-5.11-3.52s-4.41,1.35-5.38,4.06c-.97,2.71-1.52,6.65-1.65,11.84h13.5Z"/>
    <path class="cls-1" d="M270.63,41.21c4.1-4.26,9.04-6.39,14.82-6.39,3.3,0,6.4.86,9.31,2.59,2.91,1.73,5.14,4.13,6.71,7.19,1.18,2.32,1.99,5.32,2.45,9,.23,1.73.34,3.05.34,3.96h-25.59c.23,4.01.88,7.49,1.96,10.42,1.96,5.51,5.41,8.27,10.34,8.27,2.35,0,4.58-.73,6.67-2.2,1.27-.88,2.86-2.36,4.76-4.45l2.3,1.42c-3.1,5.09-6.69,8.63-10.78,10.62-2.64,1.27-5.68,1.91-9.11,1.91-4.93,0-9.55-1.94-13.86-5.82s-6.47-10.08-6.47-18.59c0-7.7,2.05-13.67,6.15-17.93ZM291.93,53.86c-.07-5.9-.52-10.03-1.38-12.38-.85-2.35-2.55-3.52-5.11-3.52s-4.41,1.35-5.38,4.06c-.97,2.71-1.52,6.65-1.65,11.84h13.5Z"/>
    <path class="cls-1" d="M307.07,79.73c1.76-.42,3.01-.99,3.74-1.69.73-.7,1.1-2.16,1.1-4.38V22.6c0-2.12-.34-3.51-1.03-4.16-.68-.65-1.96-1.19-3.81-1.62v-2.4h18.79v43.15l12.72-12.77c.75-.75,1.29-1.46,1.61-2.13.33-.67.49-1.2.49-1.59,0-1.01-.45-1.68-1.34-2.01-.9-.33-2.42-.59-4.58-.78v-2.3h21.48v2.3c-2.05.26-3.68.62-4.89,1.08-2.15.85-4.24,2.28-6.26,4.3l-7.78,7.88,19.37,26.66c.39.55.77.92,1.13,1.1.36.18.83.32,1.42.42v2.4h-23.39v-2.4c1.43-.06,2.49-.24,3.16-.54.67-.29,1-.75,1-1.37,0-.33-.14-.77-.42-1.35-.28-.57-.95-1.62-2.03-3.15l-9.49-13.45-2.2,2.44v11.35c0,2.25.28,3.75.83,4.5.55.75,1.97,1.27,4.25,1.57v2.4h-23.87v-2.4Z"/>
    <path class="cls-1" d="M433.26,54.22h17.57v5.94h-17.57v-5.94Z"/>
    <path class="cls-1" d="M476.2,14.42v25.93c1.57-1.52,3.02-2.67,4.35-3.44,2.45-1.39,5.09-2.09,7.93-2.09,5.64,0,10.18,2.2,13.62,6.61,3.44,4.4,5.16,9.82,5.16,16.24,0,8.29-2.19,14.67-6.58,19.15s-9.84,6.73-16.37,6.73c-2.67,0-5.04-.52-7.09-1.57-2.05-1.04-3.98-2.41-5.77-4.11l-7.88,5.68h-1.42V22.64c0-2.11-.38-3.53-1.13-4.27-.75-.74-2.15-1.26-4.21-1.55v-2.4h19.37ZM477.28,76.9c1.17,2.28,3.13,3.43,5.87,3.43,3.43,0,5.85-1.81,7.26-5.44,1.42-3.62,2.13-8.75,2.13-15.38,0-5.26-.63-9.78-1.88-13.57-1.25-3.79-3.71-5.68-7.36-5.68-2.15,0-3.87.79-5.16,2.37-1.29,1.59-1.93,2.72-1.93,3.41v26.35c.13,1.83.49,3.33,1.08,4.51Z"/>
    <path class="cls-1" d="M519.47,41.72c4.29-4.66,9.68-7,16.17-7s12.04,2.38,16.27,7.14,6.34,10.54,6.34,17.32-2.09,12.44-6.26,17.25c-4.18,4.81-9.62,7.22-16.34,7.22s-11.92-2.34-16.19-7.02c-4.27-4.68-6.41-10.49-6.41-17.44s2.15-12.8,6.43-17.46ZM528.84,73.91c1.14,4.34,3.41,6.51,6.8,6.51s5.35-1.66,6.36-4.99c1.01-3.33,1.52-8.74,1.52-16.24s-.53-12.87-1.59-16.22-3.14-5.01-6.24-5.01c-3.39,0-5.66,2.17-6.8,6.51-.75,2.9-1.13,7.81-1.13,14.73s.36,11.92,1.08,14.73Z"/>
    <path class="cls-1" d="M558.94,79.83c1.66-.26,3.09-.8,4.28-1.62,1.19-.82,3.01-2.71,5.45-5.68,1.01-1.24,2.35-2.97,4.01-5.2,1.67-2.22,3.04-4.02,4.11-5.39l-12.87-19.73c-1.04-1.6-1.88-2.6-2.49-2.99-.62-.39-1.53-.67-2.74-.83v-2.4h25.04v2.4c-2.32.33-3.67.56-4.06.71-.39.15-.59.53-.59,1.15,0,.75.84,2.46,2.52,5.11,1.68,2.65,3.16,4.85,4.43,6.58,3.45-4.33,5.58-7.09,6.39-8.26.81-1.18,1.22-2.16,1.22-2.94,0-.98-.4-1.6-1.2-1.86-.8-.26-2.11-.42-3.94-.49v-2.4h16.79v2.4c-1.23.23-2.25.51-3.06.83-1.49.65-2.77,1.65-3.84,2.99l-10.36,12.78,14.97,22.73c.36.55.76.97,1.2,1.25.44.28,1.04.56,1.79.86v2.3h-24.12v-2.3c1.4-.06,2.51-.23,3.33-.49.81-.26,1.22-.81,1.22-1.67,0-.55-.34-1.45-1.03-2.69-.39-.75-1.03-1.81-1.91-3.18-.49-.76-1.18-1.8-2.08-3.14-.91-1.34-1.73-2.58-2.47-3.74-2.14,2.74-3.74,4.85-4.8,6.33-2.19,3.07-3.28,5.05-3.28,5.93,0,1.05.42,1.73,1.25,2.06.83.33,2.08.52,3.74.59v2.3h-16.92v-2.3Z"/>
    <path class="cls-1" d="M389.25,62.04c4.34-2.65,11.14-5.31,20.4-7.99v-7.29c0-2.97-.63-5.16-1.88-6.58-1.26-1.42-3.48-2.13-6.68-2.13-1.79,0-3.27.34-4.43,1-1.16.67-1.74,1.51-1.74,2.52,0,.39.06.72.2.98.13.26.33.54.59.83l.59.68c.46.56.82,1.17,1.1,1.83.28.67.42,1.38.42,2.13,0,1.89-.63,3.35-1.88,4.38-1.26,1.03-2.72,1.54-4.38,1.54-1.92,0-3.56-.57-4.92-1.71-1.35-1.14-2.03-2.78-2.03-4.93,0-3.84,1.81-6.88,5.43-9.12,3.62-2.24,8.07-3.37,13.36-3.37,5.68,0,10.42,1.09,14.24,3.28,3.78,2.22,5.68,6.3,5.68,12.23v24.27c0,.72.19,1.33.56,1.83s.79.76,1.25.76c.39,0,.74-.07,1.05-.22.31-.15.79-.55,1.44-1.2l1.52,2.1c-1.96,2.28-4.13,3.88-6.51,4.79-1.5.59-3.08.88-4.75.88-2.97,0-5.14-.87-6.51-2.6-.78-.98-1.35-2.44-1.71-4.36-2.77,2.78-5.9,4.74-9.39,5.88-2.12.72-4.21,1.08-6.26,1.08-2.74,0-5.3-.87-7.68-2.62-2.38-1.75-3.57-4.47-3.57-8.16,0-4.51,2.17-8.09,6.51-10.73ZM406.71,74.94c.78-.59,1.71-1.5,2.79-2.75v-14.67c-2.67.65-5.02,1.69-7.05,3.09-3.42,2.39-5.14,5.43-5.14,9.12,0,2.19.5,3.85,1.49,4.98,1,1.13,2.11,1.69,3.35,1.69,1.63,0,3.15-.49,4.55-1.47Z"/>
    <path class="cls-1" d="M375.08,60.17h-17.57v-5.94h17.57v5.94Z"/>
  </g>
  <g>
    <path class="cls-1" d="M72.39,36.72c-.82,1.33-1.45,2.79-1.77,4.41-1.43,7.25,3.29,14.29,10.55,15.72,7.25,1.43,14.29-3.29,15.72-10.55.68-3.46-.07-6.85-1.79-9.62-.96-.1-1.96-.17-2.95-.24.94,1.08,1.52,2.47,1.52,4.01,0,3.4-2.75,6.15-6.15,6.15s-6.15-2.75-6.15-6.15c0-1.69.68-3.22,1.78-4.33-3.46.03-7.04.2-10.78.59Z"/>
    <path class="cls-1" d="M127.31,33.22c.94,1.08,1.53,2.47,1.53,4.02,0,3.4-2.75,6.15-6.15,6.15s-6.15-2.75-6.15-6.15c0-2,.97-3.75,2.44-4.87-1.59-.1-3.24-.18-5-.2-.11,0-.22,0-.33,0-.67,0-1.4.04-2.09.05-1.42.05-2.75.14-3.94.26-1.68,2.66-2.48,5.88-1.94,9.23,1.17,7.3,8.04,12.27,15.34,11.09,2.13-.34,4.02-1.21,5.65-2.39v6.7c0,.05-.04.1-.05.15h.03v57.96c0,4.21-3.41,7.62-7.62,7.62H17.43c-4.21,0-7.62-3.41-7.62-7.62V13.61c0-4.21,3.41-7.62,7.62-7.62h101.61c4.21,0,7.62,3.41,7.62,7.62v3.32s.02.03.02.05v7.37c-4.68-1.27-10.6-1.65-17.55.44,9.63-1.07,16.66,2.03,21.07,5.07h0c2.22,1.42,4.73,3.31,5.51,4.96,0,0-.65-5.52-5.51-8.8v-12.58c0-5.82-4.72-10.55-10.55-10.55H16.55c-5.82,0-10.55,4.72-10.55,10.55v103.11c0,5.82,4.72,10.55,10.55,10.55h103.11c5.82,0,10.55-4.72,10.55-10.55V33.71c-.98-.17-1.96-.35-2.89-.5Z"/>
  </g>
</svg>