<?xml version="1.0" encoding="UTF-8"?>
<svg id="Layer_1" data-name="Layer 1" xmlns="http://www.w3.org/2000/svg" viewBox="0 0 140 140">
  <defs>
    <style>
      .cls-1 {
        fill: #2d1d13;
      }
    </style>
  </defs>
  <path class="cls-1" d="M137.27,40.26s-9.03-12.05-26.71-10.08c6.99-2.1,12.93-1.72,17.64-.45v-7.4s-.02-.03-.02-.05v-3.34c0-4.23-3.43-7.66-7.66-7.66H18.39c-4.23,0-7.66,3.43-7.66,7.66v102.12c0,4.23,3.43,7.66,7.66,7.66h102.12c4.23,0,7.66-3.43,7.66-7.66v-58.25h-.03c.01-.05.05-.1.05-.15v-6.74c-1.64,1.18-3.55,2.06-5.68,2.4-7.34,1.18-14.24-3.81-15.42-11.15-.54-3.36.27-6.6,1.95-9.27,1.19-.12,2.53-.21,3.96-.26.69,0,1.43-.05,2.1-.05.11,0,.22,0,.33,0,1.76.02,3.43.1,5.02.2-1.48,1.13-2.45,2.89-2.45,4.9,0,3.41,2.77,6.18,6.18,6.18s6.18-2.77,6.18-6.18c0-1.55-.59-2.95-1.54-4.04,2.63.4,5.43.92,8.44,1.61ZM88.85,52.1c3.41,0,6.18-2.77,6.18-6.18,0-1.55-.59-2.95-1.53-4.03.99.07,2,.14,2.96.24,1.73,2.79,2.48,6.2,1.8,9.67-1.44,7.29-8.51,12.04-15.8,10.6-7.29-1.44-12.04-8.51-10.6-15.8.32-1.63.96-3.1,1.78-4.43,3.75-.39,7.35-.56,10.83-.59-1.11,1.12-1.79,2.65-1.79,4.35,0,3.41,2.77,6.18,6.18,6.18Z"/>
</svg>