<?xml version="1.0" encoding="UTF-8"?>
<svg id="Layer_1" data-name="Layer 1" xmlns="http://www.w3.org/2000/svg" viewBox="0 0 140 140">
  <defs>
    <style>
      .cls-1 {
        fill: #eee3d7;
      }
    </style>
  </defs>
  <path class="cls-1" d="M74.14,42.41c-.8,1.29-1.41,2.72-1.73,4.3-1.39,7.08,3.21,13.94,10.29,15.34,7.08,1.39,13.94-3.21,15.34-10.29.66-3.37-.07-6.68-1.74-9.39-.93-.1-1.91-.16-2.87-.23.91,1.05,1.49,2.41,1.49,3.91,0,3.31-2.68,6-6,6s-6-2.69-6-6c0-1.65.67-3.14,1.74-4.22-3.38.03-6.87.2-10.51.58Z"/>
  <path class="cls-1" d="M127.72,39c.92,1.05,1.49,2.41,1.49,3.92,0,3.31-2.68,6-6,6s-6-2.69-6-6c0-1.95.94-3.66,2.38-4.75-1.55-.1-3.17-.17-4.88-.19-.1,0-.21,0-.32,0-.65,0-1.37.04-2.04.05-1.38.05-2.69.13-3.84.25-1.64,2.59-2.42,5.74-1.9,9,1.15,7.12,7.85,11.97,14.97,10.82,2.07-.33,3.92-1.18,5.52-2.33v6.54c0,.05-.04.1-.05.15h.03v56.54c0,4.11-3.33,7.44-7.44,7.44H20.53c-4.11,0-7.44-3.33-7.44-7.44V19.87c0-4.11,3.33-7.44,7.44-7.44h99.12c4.11,0,7.44,3.33,7.44,7.44v3.24s.02.03.02.05v7.19c-4.57-1.24-10.34-1.61-17.12.43,9.39-1.05,16.25,1.98,20.55,4.94h0c2.17,1.39,4.61,3.23,5.37,4.84,0,0-.63-5.38-5.37-8.59v-12.27c0-5.68-4.61-10.29-10.29-10.29H19.66c-5.68,0-10.29,4.61-10.29,10.29v100.59c0,5.68,4.61,10.29,10.29,10.29h100.58c5.68,0,10.29-4.61,10.29-10.29V39.48c-.95-.17-1.91-.34-2.82-.48Z"/>
</svg>