<?xml version="1.0" encoding="UTF-8"?>
<svg id="Layer_1" data-name="Layer 1" xmlns="http://www.w3.org/2000/svg" viewBox="0 0 612 130">
  <defs>
    <style>
      .cls-1 {
        fill: #2d1d13;
      }
    </style>
  </defs>
  <g>
    <path class="cls-1" d="M160.09,107.14c2.17-.23,3.65-.73,4.44-1.5s1.18-2.23,1.18-4.37v-50.77c0-2.12-.37-3.56-1.11-4.3-.74-.75-2.16-1.27-4.27-1.57v-2.42h19.29v6.66c1.38-2.3,2.73-4,4.05-5.08,2.37-1.91,5.4-2.86,9.08-2.86,5.3,0,9.7,1.99,13.2,5.97,3.5,3.98,5.26,9.92,5.26,17.81,0,7.34-1.88,13.42-5.65,18.23-3.77,4.82-8.35,7.23-13.74,7.23-2.76,0-5.38-.81-7.85-2.42-1.32-.85-2.68-2.07-4.09-3.65v8.54c.03,4.54.06,7.09.1,7.65.23,2.66.91,4.49,2.05,5.48,1.13.99,3.03,1.56,5.7,1.73v2.07h-27.63v-2.42ZM195.23,77.29c.69-2.66,1.04-6.5,1.04-11.5,0-5.79-.53-10.4-1.58-13.84-1.05-3.44-3.19-5.16-6.42-5.16-2.17,0-4.11.95-5.82,2.86-1.71,1.91-2.57,3.29-2.57,4.15v24.57c0,.99.81,2.26,2.44,3.83,1.63,1.56,3.46,2.34,5.5,2.34,3.65,0,6.12-2.42,7.4-7.25Z"/>
    <path class="cls-1" d="M222.89,47.46c4.14-4.29,9.12-6.44,14.95-6.44,3.33,0,6.46.87,9.39,2.62,2.93,1.74,5.19,4.16,6.77,7.25,1.19,2.34,2.01,5.36,2.47,9.08.23,1.74.35,3.08.35,4h-25.81c.23,4.05.89,7.55,1.98,10.51,1.98,5.56,5.45,8.34,10.43,8.34,2.37,0,4.61-.74,6.72-2.22,1.29-.89,2.88-2.38,4.8-4.49l2.32,1.43c-3.13,5.13-6.75,8.7-10.87,10.71-2.67,1.28-5.73,1.92-9.19,1.92-4.97,0-9.63-1.96-13.98-5.87-4.35-3.91-6.52-10.16-6.52-18.75,0-7.76,2.07-13.79,6.2-18.08ZM244.37,60.21c-.07-5.95-.53-10.12-1.39-12.48-.86-2.37-2.57-3.55-5.15-3.55s-4.45,1.36-5.42,4.09c-.98,2.73-1.53,6.71-1.66,11.94h13.62Z"/>
    <path class="cls-1" d="M267.74,47.46c4.14-4.29,9.12-6.44,14.95-6.44,3.33,0,6.46.87,9.39,2.62,2.93,1.74,5.19,4.16,6.77,7.25,1.19,2.34,2.01,5.36,2.47,9.08.23,1.74.35,3.08.35,4h-25.81c.23,4.05.89,7.55,1.98,10.51,1.98,5.56,5.45,8.34,10.43,8.34,2.37,0,4.61-.74,6.72-2.22,1.29-.89,2.88-2.38,4.8-4.49l2.32,1.43c-3.13,5.13-6.75,8.7-10.87,10.71-2.67,1.28-5.73,1.92-9.19,1.92-4.97,0-9.63-1.96-13.98-5.87s-6.52-10.16-6.52-18.75c0-7.76,2.07-13.79,6.2-18.08ZM289.23,60.21c-.07-5.95-.53-10.12-1.39-12.48-.86-2.37-2.57-3.55-5.15-3.55s-4.45,1.36-5.42,4.09c-.98,2.73-1.53,6.71-1.66,11.94h13.62Z"/>
    <path class="cls-1" d="M304.49,86.32c1.78-.43,3.03-1,3.77-1.7.74-.71,1.11-2.18,1.11-4.42V28.69c0-2.14-.35-3.54-1.04-4.2-.69-.66-1.97-1.2-3.85-1.63v-2.42h18.95v43.52l12.83-12.88c.75-.76,1.3-1.47,1.63-2.15.33-.67.49-1.21.49-1.6,0-1.02-.45-1.69-1.36-2.02-.91-.33-2.44-.59-4.61-.79v-2.32h21.66v2.32c-2.07.27-3.72.63-4.93,1.09-2.17.86-4.28,2.3-6.32,4.34l-7.85,7.94,19.54,26.89c.39.56.77.93,1.14,1.11.36.18.84.32,1.43.42v2.42h-23.59v-2.42c1.45-.06,2.51-.24,3.18-.54.67-.3,1.01-.75,1.01-1.38,0-.33-.14-.78-.42-1.36-.28-.57-.96-1.64-2.05-3.18l-9.57-13.57-2.22,2.47v11.45c0,2.27.28,3.78.84,4.54.56.76,1.99,1.28,4.29,1.58v2.42h-24.08v-2.42Z"/>
    <path class="cls-1" d="M431.77,60.59h17.72v5.99h-17.72v-5.99Z"/>
    <path class="cls-1" d="M475.08,20.44v26.15c1.58-1.53,3.04-2.69,4.39-3.47,2.47-1.4,5.13-2.1,7.99-2.1,5.69,0,10.27,2.22,13.74,6.66,3.47,4.44,5.21,9.9,5.21,16.38,0,8.36-2.21,14.8-6.64,19.32s-9.93,6.78-16.51,6.78c-2.7,0-5.08-.53-7.15-1.58-2.07-1.05-4.01-2.43-5.82-4.15l-7.94,5.73h-1.43V28.73c0-2.12-.38-3.56-1.14-4.31-.76-.74-2.17-1.27-4.24-1.57v-2.42h19.54ZM476.17,83.45c1.18,2.3,3.16,3.46,5.92,3.46,3.46,0,5.9-1.83,7.33-5.48,1.43-3.66,2.15-8.83,2.15-15.51,0-5.3-.63-9.86-1.9-13.68-1.27-3.82-3.74-5.73-7.43-5.73-2.17,0-3.91.8-5.21,2.39-1.3,1.6-1.95,2.74-1.95,3.43v26.58c.13,1.84.49,3.36,1.09,4.55Z"/>
    <path class="cls-1" d="M518.73,47.98c4.33-4.7,9.76-7.06,16.31-7.06s12.15,2.4,16.41,7.2c4.26,4.8,6.39,10.63,6.39,17.47s-2.1,12.54-6.31,17.39c-4.21,4.85-9.71,7.28-16.48,7.28s-12.02-2.36-16.33-7.08c-4.31-4.72-6.46-10.58-6.46-17.59s2.16-12.91,6.49-17.62ZM528.18,80.44c1.15,4.38,3.44,6.56,6.86,6.56s5.4-1.68,6.41-5.03c1.02-3.36,1.53-8.81,1.53-16.38s-.53-12.98-1.6-16.36c-1.07-3.37-3.17-5.06-6.29-5.06-3.42,0-5.71,2.19-6.86,6.56-.76,2.93-1.14,7.88-1.14,14.85s.36,12.02,1.08,14.85Z"/>
    <path class="cls-1" d="M558.53,86.42c1.68-.26,3.11-.81,4.32-1.63,1.2-.82,3.03-2.73,5.5-5.73,1.02-1.25,2.37-3,4.05-5.24,1.68-2.24,3.06-4.05,4.15-5.44l-12.98-19.9c-1.05-1.61-1.89-2.62-2.52-3.01-.63-.39-1.55-.67-2.76-.84v-2.42h25.26v2.42c-2.34.33-3.7.57-4.1.72-.39.15-.59.54-.59,1.16,0,.76.85,2.48,2.54,5.15,1.69,2.68,3.18,4.89,4.47,6.64,3.48-4.37,5.63-7.15,6.45-8.33.82-1.19,1.23-2.17,1.23-2.96,0-.99-.4-1.61-1.21-1.88-.8-.26-2.13-.43-3.97-.49v-2.42h16.94v2.42c-1.24.23-2.27.51-3.09.84-1.51.66-2.8,1.66-3.88,3.01l-10.45,12.89,15.1,22.93c.36.56.77.98,1.21,1.26.45.28,1.04.57,1.8.86v2.32h-24.33v-2.32c1.41-.06,2.53-.23,3.36-.49.82-.26,1.23-.82,1.23-1.68,0-.56-.35-1.46-1.04-2.72-.4-.76-1.04-1.83-1.92-3.21-.49-.76-1.19-1.82-2.1-3.17-.91-1.35-1.74-2.6-2.49-3.77-2.16,2.76-3.78,4.89-4.84,6.39-2.2,3.1-3.31,5.09-3.31,5.98,0,1.06.42,1.75,1.26,2.08.84.33,2.1.53,3.77.59v2.32h-17.06v-2.32Z"/>
    <path class="cls-1" d="M387.38,68.47c4.37-2.67,11.23-5.35,20.58-8.06v-7.35c0-2.99-.63-5.21-1.9-6.64-1.27-1.43-3.51-2.15-6.74-2.15-1.81,0-3.3.34-4.47,1.01-1.17.68-1.75,1.52-1.75,2.54,0,.39.06.72.2.99.13.27.33.54.59.84l.59.69c.46.56.83,1.18,1.11,1.85.28.68.42,1.39.42,2.15,0,1.91-.63,3.38-1.9,4.42-1.27,1.04-2.74,1.55-4.42,1.55-1.94,0-3.59-.57-4.96-1.72-1.37-1.15-2.05-2.81-2.05-4.97,0-3.87,1.83-6.94,5.48-9.2,3.65-2.26,8.14-3.4,13.47-3.4,5.72,0,10.51,1.1,14.36,3.31,3.82,2.24,5.72,6.35,5.72,12.34v24.47c0,.72.19,1.34.57,1.85s.8.77,1.26.77c.39,0,.75-.07,1.06-.22.31-.15.8-.55,1.46-1.21l1.53,2.12c-1.97,2.3-4.16,3.91-6.56,4.84-1.51.59-3.11.89-4.79.89-2.99,0-5.18-.87-6.56-2.62-.79-.99-1.36-2.46-1.73-4.4-2.8,2.8-5.95,4.78-9.47,5.93-2.14.72-4.24,1.09-6.31,1.09-2.76,0-5.35-.88-7.75-2.64-2.4-1.76-3.6-4.51-3.6-8.23,0-4.55,2.19-8.15,6.56-10.82ZM404.99,81.48c.79-.59,1.73-1.52,2.81-2.77v-14.79c-2.7.66-5.07,1.7-7.11,3.12-3.45,2.41-5.18,5.48-5.18,9.2,0,2.21.5,3.88,1.5,5.02,1,1.14,2.13,1.71,3.38,1.71,1.65,0,3.17-.5,4.59-1.49Z"/>
    <path class="cls-1" d="M373.09,66.58h-17.72v-5.99h17.72v5.99Z"/>
  </g>
  <path class="cls-1" d="M132.98,35.16s-9.06-12.09-26.8-10.12c7.01-2.11,12.98-1.73,17.7-.45v-7.43s-.02-.03-.02-.05v-3.35c0-4.25-3.44-7.69-7.69-7.69H13.69c-4.25,0-7.69,3.44-7.69,7.69v102.49c0,4.25,3.44,7.69,7.69,7.69h102.49c4.25,0,7.69-3.44,7.69-7.69v-58.46h-.04c.01-.05.06-.1.06-.15v-6.76c-1.65,1.19-3.56,2.06-5.7,2.41-7.36,1.18-14.29-3.82-15.48-11.19-.54-3.38.27-6.63,1.96-9.31,1.19-.12,2.54-.21,3.97-.26.69,0,1.44-.05,2.11-.05.11,0,.22,0,.33,0,1.77.02,3.44.1,5.04.2-1.49,1.13-2.46,2.9-2.46,4.92,0,3.42,2.78,6.2,6.2,6.2s6.2-2.78,6.2-6.2c0-1.56-.59-2.96-1.54-4.05,2.64.4,5.45.93,8.47,1.62ZM84.39,47.03c3.42,0,6.2-2.78,6.2-6.2,0-1.55-.59-2.96-1.54-4.05,1,.07,2.01.14,2.97.24,1.74,2.8,2.49,6.22,1.8,9.7-1.44,7.32-8.54,12.08-15.86,10.64-7.32-1.44-12.08-8.54-10.64-15.86.32-1.63.96-3.11,1.78-4.45,3.77-.39,7.38-.57,10.87-.6-1.11,1.12-1.8,2.66-1.8,4.36,0,3.42,2.78,6.2,6.2,6.2Z"/>
</svg>